<svg height="472pt" viewBox="0 -19 472.15698 472" width="472pt" xmlns="http://www.w3.org/2000/svg"><path d="m418.65625 281.640625-149.808594 144.296875-260.847656-270.800781 19.410156-129.765625 135.949219-8.769532zm0 0" fill="#f7ba61"/><path d="m24.652344 172.425781 149.808594-144.300781 244.195312 253.519531-149.804688 144.296875zm0 0" fill="#ebebeb"/><path d="m90.257812 65.699219c0 13.253906-10.746093 24-24 24-13.253906 0-24-10.746094-24-24 0-13.257813 10.746094-24 24-24 13.253907 0 24 10.742187 24 24zm0 0" fill="#ea9d2d"/><path d="m78.257812 65.699219c0 6.625-5.375 12-12 12-6.628906 0-12-5.375-12-12 0-6.628907 5.371094-12 12-12 6.625 0 12 5.371093 12 12zm0 0" fill="#ebebeb"/><path d="m167.425781 101.546875-11.105469-11.53125c-3.066406-3.175781-8.121093-3.265625-11.304687-.207031l-23.046875 22.199218-23.046875 22.203126c-3.183594 3.066406-3.273437 8.128906-.207031 11.3125l11.09375 11.519531c4.398437 4.589843 10.445312 7.234375 16.800781 7.34375h.464844c12.578125.027343 23.011719-9.726563 23.824219-22.28125 5.925781-.15625 11.582031-2.523438 15.855468-6.632813 9.550782-9.183594 9.851563-24.371094.671875-33.925781zm-34.792969 44.605469c-1.476562 1.546875-3.558593 2.367187-5.695312 2.242187-2.121094-.039062-4.136719-.925781-5.601562-2.457031l-5.542969-5.761719 11.519531-11.09375 5.542969 5.757813c3.0625 3.1875 2.964843 8.25-.222657 11.3125zm23.046876-22.199219c-1.464844 1.566406-3.554688 2.390625-5.695313 2.242187-2.117187-.039062-4.132813-.917968-5.597656-2.449218l-5.546875-5.769532 11.519531-11.09375 5.546875 5.757813c3.0625 3.1875 2.960938 8.25-.226562 11.3125zm0 0" fill="#6fbbc6"/><path d="m250.679688 187.96875c-2.3125-2.402344-5.875-3.113281-8.933594-1.792969l-62.753906 27.113281c-4.019532 1.773438-5.855469 6.457032-4.113282 10.492188 1.742188 4.03125 6.410156 5.90625 10.457032 4.195312l10.601562-4.582031 17.28125 17.949219-4.96875 10.402344c-1.902344 3.988281-.210938 8.761718 3.773438 10.664062 1.074218.523438 2.25.796875 3.441406.800782 3.074218-.007813 5.875-1.777344 7.199218-4.554688l29.449219-61.6875c1.445313-3.003906.875-6.589844-1.433593-9zm-39.054688 28.648438 16.878906-7.296876-7.917968 16.601563zm0 0" fill="#e06661"/><g fill="#6fbbc6"><path d="m206.273438 141.882812-11.070313-11.53125c-1.472656-1.523437-3.484375-2.402343-5.601563-2.445312-2.113281-.011719-4.152343.789062-5.695312 2.230469l-23.105469 22.199219-23.046875 22.203124c-2.144531 1.960938-3.058594 4.929688-2.382812 7.757813.671875 2.824219 2.828125 5.066406 5.625 5.847656 2.796875.785157 5.800781-.011719 7.84375-2.078125l17.289062-16.648437 2.121094 2.199219-10.296875 29.054687c-.992187 2.707031-.457031 5.734375 1.402344 7.933594 1.863281 2.195312 4.761719 3.222656 7.59375 2.6875 2.828125-.535157 5.152343-2.550781 6.082031-5.277344l8.753906-24.71875c10.441406 3.332031 21.8125-.863281 27.589844-10.175781 5.78125-9.3125 4.492188-21.359375-3.125-29.238282zm-11.746094 22.398438c-1.527344 1.480469-3.578125 2.289062-5.703125 2.25-2.125-.035156-4.148438-.917969-5.621094-2.449219l-5.546875-5.769531 11.519531-11.09375 5.554688 5.757812c3.0625 3.1875 2.960937 8.25-.226563 11.3125zm0 0"/><path d="m259.863281 309.296875c-2.460937 0-4.785156-1.136719-6.300781-3.082031-1.511719-1.941406-2.046875-4.472656-1.449219-6.863282l11.558594-46.148437-26.007813 25.046875c-3.199218 2.929688-8.152343 2.773438-11.160156-.351562-3.011718-3.125-2.980468-8.082032.066406-11.167969l46.09375-44.402344c2.570313-2.46875 6.464844-2.9375 9.550782-1.152344 3.085937 1.789063 4.617187 5.398438 3.753906 8.859375l-11.566406 46.148438 26.007812-25.046875c2.042969-2.066407 5.046875-2.863281 7.84375-2.078125 2.796875.78125 4.953125 3.023437 5.625 5.847656.675782 2.828125-.238281 5.796875-2.382812 7.757812l-46.085938 44.402344c-1.492187 1.429688-3.476562 2.230469-5.546875 2.230469zm0 0"/><path d="m305.128906 342.128906c-10.863281.011719-21.265625-4.402344-28.800781-12.230468l-5.550781-5.769532c-3.058594-3.183594-2.960938-8.238281.214844-11.304687l46.097656-44.398438c1.574218-1.398437 3.589844-2.191406 5.695312-2.242187 2.117188.046875 4.132813.929687 5.601563 2.457031l5.542969 5.761719c11.113281 11.554687 14.253906 28.628906 7.980468 43.378906-6.273437 14.753906-20.75 24.335938-36.78125 24.347656zm-17.296875-23.328125c9.199219 9.546875 24.390625 9.828125 33.9375.632813 9.546875-9.195313 9.828125-24.390625.632813-33.9375zm0 0"/></g><path d="m55.203125 62.175781c-2.175781.003907-4.261719-.878906-5.769531-2.445312l-44.441406-46.097657c-3.066407-3.183593-2.96875-8.25.214843-11.316406 3.179688-3.066406 8.246094-2.96875 11.3125.214844l44.402344 46.09375c2.226563 2.3125 2.855469 5.726562 1.601563 8.683594-1.253907 2.953125-4.152344 4.867187-7.363282 4.867187zm0 0" fill="#69b0bb"/><path d="m216 369.9375h112l-59.152344 56zm0 0" fill="#f7ba61"/><path d="m464 269.9375c0 28.71875-23.28125 52-52 52s-52-23.28125-52-52 23.28125-52 52-52 52 23.28125 52 52zm0 0" fill="#aedee2"/><path d="m444 261.9375h-12.6875l8.96875-8.96875-11.3125-11.3125-8.96875 8.96875v-12.6875h-16v12.6875l-8.96875-8.96875-11.308594 11.3125 8.964844 8.96875h-12.6875v16h12.6875l-8.964844 8.976562 11.308594 11.3125 8.96875-8.976562v12.6875h16v-12.6875l8.96875 8.976562 11.3125-11.3125-8.96875-8.976562h12.6875zm0 0" fill="#6fbbc6"/><path d="m188.992188 182.480469c9.617187-.007813 18.300781-5.757813 22.0625-14.605469 3.765624-8.851562 1.882812-19.09375-4.78125-26.027344l-11.070313-11.496094c-1.472656-1.523437-3.484375-2.402343-5.601563-2.445312-2.113281-.011719-4.152343.789062-5.695312 2.230469l-23.105469 22.199219-23.046875 22.203124c-2.144531 1.960938-3.058594 4.929688-2.382812 7.757813.671875 2.824219 2.828125 5.066406 5.625 5.847656 2.796875.785157 5.800781-.011719 7.84375-2.078125l17.289062-16.648437 2.121094 2.199219-10.296875 29.054687c-.992187 2.707031-.457031 5.734375 1.402344 7.933594 1.863281 2.195312 4.761719 3.222656 7.59375 2.6875 2.828125-.535157 5.152343-2.550781 6.082031-5.277344l8.753906-24.71875c2.328125.761719 4.757813 1.160156 7.207032 1.183594zm.210937-35.296875 5.550781 5.761718c3.074219 3.191407 2.980469 8.269532-.207031 11.34375-3.191406 3.074219-8.269531 2.984376-11.34375-.207031l-5.546875-5.769531zm0 0"/><path d="m150.929688 142.113281c5.925781-.15625 11.582031-2.523437 15.855468-6.632812 9.546875-9.191407 9.835938-24.386719.640625-33.933594l-11.105469-11.53125c-3.066406-3.175781-8.121093-3.265625-11.304687-.207031l-23.046875 22.199218-23.046875 22.203126c-3.183594 3.066406-3.273437 8.128906-.207031 11.3125l11.09375 11.519531c4.398437 4.589843 10.445312 7.234375 16.800781 7.34375h.464844c12.578125.027343 23.011719-9.726563 23.824219-22.28125zm-.578126-35.199219 5.546876 5.757813c3.0625 3.183594 2.964843 8.25-.21875 11.3125-1.464844 1.566406-3.554688 2.390625-5.695313 2.242187-2.117187-.039062-4.132813-.917968-5.597656-2.449218l-5.546875-5.769532zm-17.71875 39.269532c-1.476562 1.546875-3.558593 2.367187-5.695312 2.242187-2.121094-.039062-4.136719-.925781-5.601562-2.457031l-5.542969-5.757812 11.519531-11.097657 5.542969 5.761719c3.042969 3.179688 2.941406 8.21875-.222657 11.277344zm0 0"/><path d="m250.679688 187.96875c-2.3125-2.402344-5.875-3.113281-8.933594-1.792969l-62.753906 27.113281c-4.019532 1.773438-5.855469 6.457032-4.113282 10.492188 1.742188 4.03125 6.410156 5.90625 10.457032 4.195312l10.601562-4.582031 17.28125 17.949219-4.96875 10.402344c-1.902344 3.988281-.210938 8.761718 3.773438 10.664062 1.074218.523438 2.25.796875 3.441406.800782 3.074218-.007813 5.875-1.777344 7.199218-4.554688l29.449219-61.6875c1.445313-3.003906.875-6.589844-1.433593-9zm-39.054688 28.648438 16.878906-7.296876-7.917968 16.601563zm0 0"/><path d="m311.730469 251.351562c-3.066407-3.179687-8.128907-3.277343-11.3125-.214843l-26.015625 25.046875 11.558594-46.148438c.863281-3.460937-.667969-7.070312-3.753907-8.859375-3.085937-1.785156-6.980469-1.316406-9.550781 1.152344l-46.09375 44.402344c-3.046875 3.085937-3.078125 8.042969-.066406 11.167969 3.007812 3.125 7.960937 3.28125 11.160156.351562l26.007812-25.046875-11.558593 46.148437c-.867188 3.460938.660156 7.078126 3.746093 8.867188 3.089844 1.789062 6.984376 1.320312 9.558594-1.152344l46.085938-44.402344c3.1875-3.058593 3.292968-8.121093.234375-11.3125zm0 0"/><path d="m328.378906 268.640625c-1.46875-1.527344-3.484375-2.410156-5.601562-2.457031-2.105469.050781-4.121094.84375-5.695313 2.242187l-46.097656 44.398438c-3.175781 3.066406-3.273437 8.121093-.214844 11.304687l5.550781 5.769532c9.839844 10.617187 24.648438 15.09375 38.722657 11.699218 14.070312-3.394531 25.210937-14.128906 29.128906-28.066406 3.914063-13.9375-.003906-28.902344-10.25-39.128906zm-6.609375 50.792969c-9.546875 9.195312-24.738281 8.914062-33.9375-.632813l34.570313-33.304687c9.195312 9.546875 8.914062 24.742187-.632813 33.9375zm0 0"/><path d="m412 209.9375c-13.910156-.011719-27.390625 4.832031-38.109375 13.695312l-193.664063-201.0625-11.097656-11.519531c-1.632812-1.703125-3.933594-2.59375-6.289062-2.441406l-132.238282 8.535156-14.082031-14.613281c-3.066406-3.183594-8.132812-3.28125-11.3125-.214844-3.183593 3.066406-3.28125 8.132813-.214843 11.316406l13.921874 14.449219-18.8242182 125.863281c-.3710938 2.457032.4218752 4.945313 2.1445312 6.734376l16.640625 17.28125 244.199219 253.519531.085937.097656c3.070313 3.101563 8.070313 3.152344 11.199219.113281l111.792969-107.683594c22.253906 10.703126 48.789062 6.679688 66.867187-10.136718 18.082031-16.816406 24.011719-42.992188 14.949219-65.960938-9.066406-22.96875-31.277344-38.035156-55.96875-37.972656zm-44 60c.007812-8.015625 2.222656-15.875 6.402344-22.710938l14.175781 14.710938h-8.578125v16h12.6875l-8.964844 8.976562 8.796875 8.800782-8.519531 8.167968c-10.140625-8.351562-16.011719-20.808593-16-33.945312zm-335.078125-227.3125 11.925781 12.382812c-3.695312 7.355469-3.359375 16.09375.898438 23.136719 4.257812 7.042969 11.832031 11.40625 20.0625 11.554688h.457031c13.253906.121093 24.097656-10.527344 24.21875-23.78125.121094-13.253907-10.523437-24.097657-23.777344-24.21875-3.566406-.078125-7.101562.675781-10.328125 2.199219l-11.242187-11.65625 115.03125-7.425782 2.984375 3.097656-138.289063 133.199219-8.367187-8.695312zm27.792969 17.3125c1.480468-1.441406 3.46875-2.246094 5.535156-2.238281h.160156c3.234375.0625 6.109375 2.066406 7.289063 5.078125 1.179687 3.011718.429687 6.4375-1.898438 8.679687-1.496093 1.515625-3.566406 2.328125-5.695312 2.234375-3.234375-.0625-6.113281-2.066406-7.296875-5.078125s-.433594-6.4375 1.898437-8.683593zm173.832031 318h72.597656l-38.023437 36.632812zm88.949219-15.753906v-.246094h-105.191406l-182.304688-189.304688 138.25-133.199218 188.800781 196c-17.765625 25.023437-13.660156 59.4375 9.488281 79.582031zm88.503906-48.246094c-4.488281 0-8.949219-.6875-13.230469-2.039062l10.34375-9.960938h10.886719v-10.480469l1.121094-1.078125 7.847656 7.847656 11.3125-11.3125-8.96875-8.976562h12.6875v-16h-12.6875l8.96875-8.96875-11.3125-11.289062-8.96875 8.945312v-12.6875h-16v12.6875l-8.96875-8.945312-1.925781 1.921874-8-8.351562c15.191406-11.855469 36.328125-12.445312 52.15625-1.457031 15.832031 10.984375 22.667969 30.996093 16.878906 49.371093-5.792969 18.378907-22.871094 30.847657-42.140625 30.773438zm0 0"/></svg>