<svg id="Layer_1" data-name="Layer 1" xmlns="http://www.w3.org/2000/svg" viewBox="0 0 295 182"><defs><style>.cls-1{fill:#26a9e0;}.cls-2{fill:#0074a7;}</style></defs><title>oae-log</title><circle class="cls-1" cx="93.44" cy="91.58" r="16.55"/><circle class="cls-1" cx="54.52" cy="52.53" r="9.01"/><circle class="cls-1" cx="93.62" cy="36.13" r="9.01"/><circle class="cls-1" cx="132.43" cy="52.26" r="9.01"/><circle class="cls-1" cx="132.43" cy="130.44" r="9.01"/><circle class="cls-1" cx="93.45" cy="146.58" r="9.01"/><circle class="cls-1" cx="54.8" cy="130.44" r="9.01"/><circle class="cls-1" cx="38.39" cy="91.73" r="9.01"/><circle class="cls-2" cx="93.61" cy="58.29" r="5.39"/><circle class="cls-2" cx="93.61" cy="124.41" r="5.39"/><circle class="cls-2" cx="126.67" cy="91.35" r="5.39"/><circle class="cls-2" cx="60.55" cy="91.35" r="5.39"/><circle class="cls-2" cx="116.99" cy="67.98" r="5.39" transform="translate(-13.8 102.62) rotate(-44.99)"/><circle class="cls-2" cx="70.24" cy="114.73" r="5.39" transform="translate(-60.56 83.29) rotate(-45.01)"/><circle class="cls-2" cx="116.99" cy="114.73" r="5.39" transform="translate(-46.86 116.35) rotate(-45.01)"/><circle class="cls-2" cx="70.24" cy="67.97" r="5.39" transform="translate(-27.49 69.56) rotate(-44.99)"/><circle class="cls-2" cx="105.96" cy="60.68" r="5.39" transform="translate(10.09 136.31) rotate(-68.07)"/><path class="cls-2" d="M83.28,117a5.39,5.39,0,1,0,3,7A5.39,5.39,0,0,0,83.28,117Z"/><path class="cls-2" d="M122.27,108.7a5.39,5.39,0,1,0-3-7A5.4,5.4,0,0,0,122.27,108.7Z"/><path class="cls-2" d="M67.94,81a5.39,5.39,0,1,0-7,3A5.39,5.39,0,0,0,67.94,81Z"/><path class="cls-2" d="M126.14,83.36a5.39,5.39,0,1,0-7.07-2.85A5.4,5.4,0,0,0,126.14,83.36Z"/><circle class="cls-2" cx="63.2" cy="104.31" r="5.39" transform="matrix(0.92, -0.39, 0.39, 0.92, -35.81, 33.1)"/><path class="cls-2" d="M104.46,116.8a5.39,5.39,0,1,0,7.07,2.85A5.4,5.4,0,0,0,104.46,116.8Z"/><path class="cls-2" d="M82.77,65.89a5.39,5.39,0,1,0-7.07-2.84A5.39,5.39,0,0,0,82.77,65.89Z"/><path class="cls-2" d="M221.1,56.74A35,35,0,0,0,192.16,72a35,35,0,0,0-28.94-15.29h0c-1.06,0-2.09.06-3.12.15l-.3,0c-1,.1-2,.24-3,.43l-.25.05c-1,.19-2,.44-3,.72a35.07,35.07,0,0,0-15.32,9.21,36.59,36.59,0,0,1,5.57,11.4,23.63,23.63,0,0,1,4.27-4.8h0a23.51,23.51,0,0,1,6.92-4.1l.08,0a23.36,23.36,0,0,1,3.88-1.08l.23,0c.56-.09,1.12-.18,1.7-.23l.42,0c.65-.05,1.31-.1,2-.1A23.47,23.47,0,0,1,186,86.39v.45l-.37,11.63a23.45,23.45,0,0,1-22.44,16.78c-.73,0-1.45,0-2.17-.11l-.42,0a22.87,22.87,0,0,1-4.2-.86l-.33-.1c-.67-.22-1.33-.45-2-.72l-.16-.07c-.59-.25-1.15-.53-1.71-.83l-.35-.19c-.58-.32-1.14-.66-1.69-1l-.36-.25c-.44-.31-.87-.63-1.29-1l-.4-.33q-.71-.59-1.37-1.24l-.44-.45q-.5-.52-1-1.06l-.38-.44c-.38-.47-.75-1-1.09-1.45l-.36-.55c-.4-.61-.72-1.26-1.05-1.9a36.73,36.73,0,0,1-6.76,10.78c.56.71,1.13,1.41,1.75,2.07h0l.39.39c.38.4.76.78,1.16,1.16s.87.82,1.33,1.22.63.55,1,.82c.58.46,1.18.91,1.79,1.34l.93.64q1,.66,2.06,1.24c.27.15.54.3.82.45.77.41,1.55.79,2.36,1.14l.66.28c.87.36,1.75.68,2.66,1l.49.14c1,.29,2,.55,3,.76l.31.06q1.6.32,3.23.49h.16c1.14.11,2.28.18,3.45.18h0a34.87,34.87,0,0,0,22.8-8.46v8.29h11.63v-8.9a34.95,34.95,0,0,0,55.29-11.4H239.46a23.44,23.44,0,0,1-40.85-7.89h56.94V98a34.62,34.62,0,0,0,.59-6.22A35,35,0,0,0,221.1,56.74Zm-22.94,30.1a23.46,23.46,0,0,1,45.87,0Z"/></svg>