<svg width="104" height="59" viewBox="0 0 104 59" fill="none" xmlns="http://www.w3.org/2000/svg">
<path d="M29.3802 37.1539C33.5723 37.1539 36.9706 33.7556 36.9706 29.5635C36.9706 25.3715 33.5723 21.9731 29.3802 21.9731C25.1881 21.9731 21.7898 25.3715 21.7898 29.5635C21.7898 33.7556 25.1881 37.1539 29.3802 37.1539Z" fill="#78C9EC"/>
<path d="M11.5302 15.7863C13.8125 15.7863 15.6625 13.9362 15.6625 11.654C15.6625 9.37182 13.8125 7.52173 11.5302 7.52173C9.24804 7.52173 7.39795 9.37182 7.39795 11.654C7.39795 13.9362 9.24804 15.7863 11.5302 15.7863Z" fill="#78C9EC"/>
<path d="M29.4629 8.26459C31.7451 8.26459 33.5952 6.4145 33.5952 4.1323C33.5952 1.85009 31.7451 0 29.4629 0C27.1807 0 25.3306 1.85009 25.3306 4.1323C25.3306 6.4145 27.1807 8.26459 29.4629 8.26459Z" fill="#78C9EC"/>
<path d="M47.2622 15.6623C49.5444 15.6623 51.3945 13.8122 51.3945 11.53C51.3945 9.2478 49.5444 7.39771 47.2622 7.39771C44.98 7.39771 43.1299 9.2478 43.1299 11.53C43.1299 13.8122 44.98 15.6623 47.2622 15.6623Z" fill="#78C9EC"/>
<path d="M47.2622 51.5183C49.5444 51.5183 51.3945 49.6682 51.3945 47.386C51.3945 45.1038 49.5444 43.2537 47.2622 43.2537C44.98 43.2537 43.1299 45.1038 43.1299 47.386C43.1299 49.6682 44.98 51.5183 47.2622 51.5183Z" fill="#78C9EC"/>
<path d="M29.3847 58.9208C31.6669 58.9208 33.517 57.0707 33.517 54.7885C33.517 52.5063 31.6669 50.6562 29.3847 50.6562C27.1025 50.6562 25.2524 52.5063 25.2524 54.7885C25.2524 57.0707 27.1025 58.9208 29.3847 58.9208Z" fill="#78C9EC"/>
<path d="M11.6587 51.5183C13.9409 51.5183 15.791 49.6682 15.791 47.386C15.791 45.1038 13.9409 43.2537 11.6587 43.2537C9.37646 43.2537 7.52637 45.1038 7.52637 47.386C7.52637 49.6682 9.37646 51.5183 11.6587 51.5183Z" fill="#78C9EC"/>
<path d="M4.1323 33.7646C6.4145 33.7646 8.26459 31.9145 8.26459 29.6323C8.26459 27.3501 6.4145 25.5 4.1323 25.5C1.85009 25.5 0 27.3501 0 29.6323C0 31.9145 1.85009 33.7646 4.1323 33.7646Z" fill="#78C9EC"/>
<path d="M29.4581 16.7676C30.8234 16.7676 31.9302 15.6608 31.9302 14.2955C31.9302 12.9303 30.8234 11.8235 29.4581 11.8235C28.0929 11.8235 26.9861 12.9303 26.9861 14.2955C26.9861 15.6608 28.0929 16.7676 29.4581 16.7676Z" fill="#03254E"/>
<path d="M29.4581 47.0925C30.8234 47.0925 31.9302 45.9857 31.9302 44.6205C31.9302 43.2552 30.8234 42.1484 29.4581 42.1484C28.0929 42.1484 26.9861 43.2552 26.9861 44.6205C26.9861 45.9857 28.0929 47.0925 29.4581 47.0925Z" fill="#03254E"/>
<path d="M44.6205 31.9299C45.9857 31.9299 47.0925 30.8231 47.0925 29.4579C47.0925 28.0926 45.9857 26.9858 44.6205 26.9858C43.2552 26.9858 42.1484 28.0926 42.1484 29.4579C42.1484 30.8231 43.2552 31.9299 44.6205 31.9299Z" fill="#03254E"/>
<path d="M14.2955 31.9299C15.6608 31.9299 16.7676 30.8231 16.7676 29.4579C16.7676 28.0926 15.6608 26.9858 14.2955 26.9858C12.9303 26.9858 11.8235 28.0926 11.8235 29.4579C11.8235 30.8231 12.9303 31.9299 14.2955 31.9299Z" fill="#03254E"/>
<path d="M41.9331 20.4913C42.8987 19.5261 42.899 17.9609 41.9337 16.9954C40.9685 16.0298 39.4033 16.0295 38.4378 16.9947C37.4722 17.96 37.4719 19.5252 38.4371 20.4907C39.4024 21.4563 40.9676 21.4566 41.9331 20.4913Z" fill="#03254E"/>
<path d="M20.4877 41.927C21.4529 40.9615 21.4527 39.3962 20.4871 38.431C19.5215 37.4658 17.9563 37.4661 16.9911 38.4316C16.0259 39.3972 16.0262 40.9624 16.9917 41.9276C17.9573 42.8928 19.5225 42.8926 20.4877 41.927Z" fill="#03254E"/>
<path d="M41.9296 41.9255C42.8948 40.96 42.8945 39.3948 41.929 38.4296C40.9634 37.4643 39.3982 37.4646 38.433 38.4302C37.4678 39.3957 37.468 40.9609 38.4336 41.9262C39.3992 42.8914 40.9644 42.8911 41.9296 41.9255Z" fill="#03254E"/>
<path d="M20.4873 20.4843C21.4529 19.519 21.4532 17.9538 20.4879 16.9883C19.5227 16.0227 17.9575 16.0224 16.992 16.9877C16.0264 17.9529 16.0261 19.5181 16.9913 20.4837C17.9566 21.4492 19.5218 21.4495 20.4873 20.4843Z" fill="#03254E"/>
<path d="M37.4122 16.3145C37.9221 15.0481 37.3087 13.608 36.0422 13.0981C34.7758 12.5883 33.3357 13.2016 32.8258 14.4681C32.3159 15.7345 32.9293 17.1746 34.1958 17.6845C35.4622 18.1944 36.9023 17.581 37.4122 16.3145Z" fill="#03254E"/>
<path d="M24.7203 41.2221C24.2663 41.04 23.7686 40.9967 23.29 41.0977C22.8114 41.1986 22.3735 41.4392 22.0318 41.7891C21.69 42.139 21.4597 42.5824 21.37 43.0633C21.2804 43.5441 21.3353 44.0407 21.528 44.4903C21.7207 44.9398 22.0424 45.3221 22.4524 45.5888C22.8624 45.8555 23.3423 45.9945 23.8314 45.9883C24.3205 45.9821 24.7967 45.831 25.1999 45.5541C25.603 45.2771 25.915 44.8868 26.0962 44.4325C26.3389 43.8243 26.3303 43.1446 26.0723 42.5427C25.8144 41.9408 25.3281 41.4658 24.7203 41.2221Z" fill="#03254E"/>
<path d="M42.6025 37.4154C43.0565 37.5974 43.5543 37.6407 44.0328 37.5398C44.5114 37.4388 44.9493 37.1982 45.2911 36.8483C45.6328 36.4984 45.8631 36.055 45.9528 35.5742C46.0425 35.0934 45.9875 34.5967 45.7948 34.1472C45.6022 33.6976 45.2805 33.3153 44.8704 33.0486C44.4604 32.782 43.9805 32.6429 43.4914 32.6491C43.0024 32.6553 42.5261 32.8064 42.123 33.0834C41.7198 33.3603 41.4079 33.7506 41.2266 34.2049C40.9852 34.8133 40.9944 35.4924 41.2523 36.094C41.5101 36.6956 41.9955 37.1706 42.6025 37.4154Z" fill="#03254E"/>
<path d="M17.6849 24.711C17.867 24.2571 17.9103 23.7593 17.8093 23.2807C17.7084 22.8021 17.4677 22.3643 17.1178 22.0225C16.768 21.6807 16.3245 21.4504 15.8437 21.3607C15.3629 21.2711 14.8663 21.3261 14.4167 21.5187C13.9671 21.7114 13.5848 22.0331 13.3182 22.4431C13.0515 22.8531 12.9125 23.3331 12.9187 23.8221C12.9248 24.3112 13.076 24.7875 13.3529 25.1906C13.6299 25.5938 14.0202 25.9057 14.4745 26.0869C15.0827 26.3296 15.7624 26.321 16.3643 26.0631C16.9662 25.8051 17.4412 25.3188 17.6849 24.711Z" fill="#03254E"/>
<path d="M44.3775 25.7937C44.8274 25.6023 45.2105 25.2817 45.4782 24.8726C45.746 24.4636 45.8864 23.9843 45.8817 23.4954C45.8771 23.0065 45.7275 22.5299 45.452 22.126C45.1766 21.7221 44.7875 21.4089 44.334 21.2262C43.8806 21.0434 43.3831 20.9991 42.9045 21.0991C42.4259 21.199 41.9877 21.4386 41.6453 21.7876C41.3028 22.1366 41.0716 22.5793 40.9808 23.0597C40.8899 23.5401 40.9436 24.0366 41.135 24.4865C41.3926 25.0891 41.8785 25.5649 42.4863 25.8099C43.094 26.0549 43.7741 26.0491 44.3775 25.7937Z" fill="#03254E"/>
<path d="M16.3902 37.7256C17.6463 37.1931 18.2328 35.7432 17.7004 34.4872C17.1679 33.2312 15.7181 32.6446 14.462 33.177C13.206 33.7095 12.6194 35.1593 13.1518 36.4154C13.6843 37.6714 15.1342 38.258 16.3902 37.7256Z" fill="#03254E"/>
<path d="M34.4345 41.1302C33.9846 41.3216 33.6015 41.6421 33.3338 42.0512C33.0661 42.4603 32.9256 42.9396 32.9303 43.4285C32.9349 43.9174 33.0845 44.3939 33.36 44.7978C33.6354 45.2018 34.0245 45.5149 34.478 45.6977C34.9314 45.8805 35.4289 45.9247 35.9075 45.8248C36.3861 45.7249 36.8243 45.4852 37.1667 45.1363C37.5092 44.7873 37.7404 44.3446 37.8312 43.8642C37.9221 43.3838 37.8684 42.8872 37.677 42.4373C37.4194 41.8348 36.9335 41.3589 36.3257 41.1139C35.718 40.8689 35.0379 40.8748 34.4345 41.1302Z" fill="#03254E"/>
<path d="M24.4866 17.7812C24.9365 17.5895 25.3193 17.2686 25.5868 16.8592C25.8542 16.4498 25.9942 15.9702 25.9891 15.4812C25.984 14.9922 25.8339 14.5158 25.5579 14.1121C25.282 13.7084 24.8924 13.3956 24.4387 13.2133C23.9849 13.031 23.4872 12.9874 23.0087 13.088C22.5301 13.1886 22.0921 13.4289 21.7502 13.7785C21.4082 14.128 21.1776 14.5712 21.0875 15.0518C20.9974 15.5325 21.0519 16.029 21.2441 16.4787C21.5016 17.0812 21.9877 17.5568 22.5958 17.8011C23.2038 18.0453 23.8839 18.0382 24.4866 17.7812Z" fill="#03254E"/>
<path d="M87.9294 13.5846C85.3143 13.5817 82.7381 14.2179 80.4248 15.4376C78.1116 16.6574 76.1314 18.4238 74.6565 20.5833C73.1831 18.4213 71.2036 16.6522 68.8903 15.4299C66.577 14.2077 64 13.5695 61.3836 13.5708C60.8975 13.5708 60.4251 13.5983 59.9527 13.6396H59.8151C59.3565 13.6855 58.8978 13.7497 58.4392 13.8368L58.3245 13.8597C57.8659 13.9469 57.4073 14.0615 56.9486 14.19C54.281 14.9674 51.8603 16.4227 49.9223 18.414C51.0718 19.9947 51.9364 21.7641 52.4769 23.6424C53.0265 22.8229 53.6853 22.0822 54.4353 21.441C55.3773 20.6365 56.451 20.0004 57.6091 19.5606H57.6457C58.2235 19.3445 58.8189 19.1788 59.4252 19.0652H59.5307C59.7876 19.024 60.0444 18.9827 60.3104 18.9598H60.503C60.8011 18.9368 61.1038 18.9139 61.4203 18.9139C63.831 18.9273 66.1674 19.7496 68.0551 21.249C69.9428 22.7484 71.2726 24.838 71.8313 27.1831V27.3895L71.6616 32.7234C71.0031 34.9431 69.6458 36.8909 67.7916 38.2775C65.9373 39.664 63.6852 40.4152 61.3699 40.4193C61.0351 40.4193 60.7048 40.4193 60.3746 40.3688H60.182C59.529 40.2979 58.884 40.1659 58.2557 39.9744L58.1044 39.9285C57.7971 39.8276 57.4944 39.7221 57.1871 39.5983L57.1137 39.5662C56.8431 39.4515 56.5863 39.3231 56.3295 39.1855L56.1689 39.0984C55.9029 38.9516 55.6461 38.7957 55.3939 38.6398L55.2287 38.5251C55.0269 38.3829 54.8297 38.2362 54.6371 38.0665L54.4536 37.9151C54.2366 37.7347 54.0271 37.5452 53.8253 37.3464L53.6235 37.14C53.4706 36.981 53.3178 36.819 53.1649 36.6539L52.9906 36.4521C52.8163 36.2365 52.6466 35.9934 52.4907 35.7871L52.3256 35.5348C52.1421 35.255 51.9954 34.9569 51.844 34.6634C51.1061 36.4792 50.0569 38.1524 48.7437 39.6075C49.0005 39.9331 49.2619 40.2542 49.5463 40.5569L49.7251 40.7357C49.8994 40.9192 50.0737 41.0935 50.2571 41.2677C50.4406 41.442 50.6562 41.6438 50.8671 41.8273C51.0781 42.0107 51.1561 42.0795 51.3258 42.2033C51.5918 42.4143 51.867 42.6207 52.1467 42.8179L52.5732 43.1114C52.879 43.3132 53.1939 43.5028 53.518 43.6802C53.6419 43.7489 53.7657 43.8177 53.8941 43.8865C54.2473 44.0746 54.605 44.2489 54.9765 44.4094L55.2792 44.5378C55.6782 44.7029 56.0818 44.8497 56.4992 44.9964L56.7239 45.0606C57.1825 45.1936 57.6412 45.3129 58.0998 45.4092L58.242 45.4367C58.7312 45.5346 59.225 45.6095 59.7234 45.6615H59.7967C60.3196 45.7119 60.8424 45.744 61.379 45.744C65.2173 45.7474 68.9288 44.3703 71.8359 41.864V45.666H77.1698V41.5842C79.0386 43.2795 81.2812 44.5098 83.7151 45.1748C86.1491 45.8398 88.7057 45.9209 91.1769 45.4114C93.6481 44.9018 95.9641 43.8161 97.9365 42.2426C99.9089 40.669 101.482 38.652 102.528 36.3558H96.3499C95.1279 37.899 93.5055 39.0772 91.6598 39.7616C89.8141 40.4461 87.8159 40.6107 85.8831 40.2373C83.9503 39.864 82.1571 38.9672 80.6991 37.6446C79.241 36.322 78.1741 34.6245 77.6147 32.7371H103.729V32.5078C103.905 31.567 103.996 30.6122 104 29.6551C104.002 27.544 103.588 25.4532 102.782 23.5023C101.975 21.5515 100.791 19.7789 99.2984 18.2861C97.8056 16.7934 96.033 15.6097 94.0822 14.8029C92.1313 13.9962 90.0405 13.5821 87.9294 13.5846ZM77.4083 27.3895C77.9259 24.9841 79.2523 22.8287 81.1664 21.2827C83.0805 19.7367 85.4666 18.8934 87.9271 18.8934C90.3875 18.8934 92.7737 19.7367 94.6878 21.2827C96.6019 22.8287 97.9282 24.9841 98.4459 27.3895H77.4083Z" fill="#03254E"/>
</svg>
